<svg version="1.1" id="Layer_1" xmlns="http://www.w3.org/2000/svg" xmlns:xlink="http://www.w3.org/1999/xlink" x="0px" y="0px"
	 width="100%" viewBox="0 0 1024 1024" enable-background="new 0 0 1024 1024" xml:space="preserve">
<path fill="#000001" opacity="1.000000" stroke="none" 
	d="
M602.000000,1025.000000 
	C401.333344,1025.000000 201.166672,1025.000000 1.000000,1025.000000 
	C1.000000,683.666687 1.000000,342.333344 1.000000,1.000000 
	C342.333344,1.000000 683.666687,1.000000 1025.000000,1.000000 
	C1025.000000,342.333344 1025.000000,683.666687 1025.000000,1025.000000 
	C884.166687,1025.000000 743.333313,1025.000000 602.000000,1025.000000 
M231.197235,496.185913 
	C231.197235,496.185913 231.215042,496.162170 231.764771,495.833221 
	C245.240570,479.946625 251.622040,461.766327 249.102493,440.889099 
	C248.006226,431.805389 245.395996,423.277710 237.214630,417.764862 
	C237.214630,417.764862 237.294403,417.746857 236.983765,417.161621 
	C231.618210,413.471893 225.737320,411.601776 219.167770,411.604401 
	C177.170715,411.621277 135.173615,411.560303 93.176521,411.529877 
	C84.025803,411.523254 81.481216,413.849518 81.471001,422.900482 
	C81.397827,487.728424 81.373749,552.556458 81.386131,617.384460 
	C81.387955,626.908569 84.748993,630.269775 94.447289,630.303162 
	C126.445198,630.413452 158.448730,630.723083 190.438309,630.214417 
	C199.083618,630.077026 207.980743,628.230713 216.254974,625.583252 
	C241.272827,617.578613 258.628113,592.639893 258.805786,565.233093 
	C258.715179,562.116028 258.624573,558.999023 258.689972,555.079834 
	C257.100616,542.099121 253.462357,530.000854 243.486954,520.763062 
	C236.291550,514.099731 233.084946,514.297180 225.900772,521.353027 
	C220.926208,526.238708 216.169647,531.414917 210.765610,535.780334 
	C200.056183,544.431580 188.966171,552.611694 177.990234,560.957458 
	C177.990234,560.957458 177.977127,561.007935 177.275482,561.121460 
	C169.330887,565.982300 161.592346,571.230225 153.385620,575.598633 
	C144.615021,580.267151 135.465714,584.249939 126.352364,588.236389 
	C122.669266,589.847473 119.276581,588.460510 117.460060,584.881653 
	C115.616295,581.248962 117.014435,578.091248 120.073509,575.640198 
	C120.847450,575.020081 121.702362,574.485901 122.568550,573.998413 
	C134.756592,567.139587 147.171021,560.651123 159.084412,553.345337 
	C170.400146,546.406067 181.193817,538.615540 192.152542,531.174377 
	C192.152542,531.174377 192.142242,531.242798 192.812302,531.055786 
	C206.700699,520.650818 220.496689,510.144104 231.197235,496.185913 
M424.813690,433.511353 
	C424.773102,433.340240 424.732513,433.169098 424.913696,432.084381 
	C424.817963,425.049408 424.722198,418.014404 424.743164,410.545776 
	C424.743164,410.545776 424.616577,410.114899 424.781403,409.269196 
	C424.377838,408.846130 423.980743,408.061890 423.569763,408.054565 
	C418.031586,407.955902 412.490204,407.905396 406.953491,408.024963 
	C406.271942,408.039734 405.613068,409.105713 404.898132,409.540466 
	C404.898132,409.540466 404.941467,409.700653 404.740875,410.457520 
	C404.805786,411.231140 404.870697,412.004761 404.737854,413.602325 
	C404.816254,429.910034 404.894623,446.217712 404.715820,463.325012 
	C404.727600,466.390198 404.739349,469.455414 404.111450,472.965118 
	C403.081696,472.442017 401.657684,472.191498 401.079895,471.355927 
	C387.079376,451.107269 373.179077,430.789337 359.213226,410.516632 
	C358.516235,409.504913 357.418121,408.083618 356.462219,408.047913 
	C350.410767,407.822083 344.346741,407.933258 338.311707,407.933258 
	C338.311707,441.356628 338.311707,473.913849 338.311707,506.608276 
	C345.311798,506.608276 351.990448,506.608276 359.252563,506.608276 
	C359.252563,486.612091 359.252563,467.083099 359.252563,447.554108 
	C361.437134,448.449036 362.648010,449.695557 363.624695,451.104370 
	C375.939148,468.866974 388.185577,486.676971 400.581482,504.382355 
	C401.462830,505.641174 403.342529,506.849579 404.819214,506.927917 
	C410.464386,507.227295 416.137878,507.154846 421.792328,506.966309 
	C422.812378,506.932281 423.792328,505.696289 424.954529,504.087830 
	C424.861664,480.732117 424.768829,457.376434 424.813690,433.511353 
M670.758362,586.264709 
	C681.135437,576.938782 682.033508,565.005127 678.768860,552.739380 
	C675.753052,541.408447 667.035950,534.280823 655.834595,533.162903 
	C639.018066,531.484558 621.999451,531.828430 605.065979,531.341309 
	C604.813477,531.333984 604.550354,531.697144 603.858521,532.207214 
	C603.858521,538.858948 603.857849,545.826477 603.858643,552.793945 
	C603.861694,578.273010 603.847717,603.752075 603.903076,629.231018 
	C603.907288,631.178162 602.973267,634.018494 606.469421,634.082581 
	C612.406433,634.191467 618.346924,634.112488 624.812134,634.112488 
	C624.812134,623.878113 624.806213,614.260498 624.813782,604.642883 
	C624.821350,595.091064 624.851990,595.517761 634.217957,594.977173 
	C640.300232,594.626099 643.198853,597.181702 645.577759,602.296509 
	C649.504578,610.739502 654.447815,618.721069 658.174133,627.241882 
	C660.650879,632.905212 664.083984,634.851318 670.031982,634.216858 
	C674.818115,633.706360 679.702209,634.113525 685.345642,634.113525 
	C684.147583,631.494690 683.639282,630.098999 682.908630,628.831482 
	C677.180054,618.892273 671.397339,608.984253 665.654968,599.052917 
	C661.880554,592.525024 661.902344,592.520874 668.250366,588.261658 
	C668.938171,587.800171 669.544434,587.217163 670.758362,586.264709 
M640.432861,424.990936 
	C635.925049,436.900452 639.553772,449.801300 650.607422,455.749817 
	C658.394653,459.940521 667.277100,462.108521 675.695251,465.110291 
	C681.781921,467.280762 688.203796,468.744751 693.942322,471.597656 
	C700.809692,475.011749 700.878540,484.390076 694.642334,489.039246 
	C683.958069,497.004517 667.364380,493.033447 661.283081,481.280121 
	C660.508789,479.783722 658.196777,478.213593 656.574219,478.188934 
	C651.767578,478.115875 646.950317,478.811035 642.135437,479.182800 
	C638.447205,479.467590 637.301025,481.413300 638.171814,484.906158 
	C640.303467,493.456665 645.074036,500.046936 652.908264,504.103821 
	C668.960632,512.416382 685.694031,512.582031 702.265076,506.454590 
	C721.538025,499.328064 727.171631,474.189728 713.274902,459.365692 
	C707.545532,453.253845 699.841736,450.980621 692.052979,448.962982 
	C684.178833,446.923218 676.248474,445.066833 668.465271,442.722931 
	C664.301453,441.469025 660.121216,439.529327 660.186523,434.052368 
	C660.243713,429.259918 663.887329,424.815704 669.579651,423.805389 
	C684.342773,421.185089 693.176819,423.175964 697.785156,437.983276 
	C704.681824,437.353546 711.662170,436.716187 718.737610,436.070160 
	C717.487122,423.782135 712.024170,415.197876 701.931213,410.091431 
	C689.332458,403.717255 675.994019,403.207397 662.502686,406.816772 
	C652.757751,409.423889 644.830322,414.517242 640.432861,424.990936 
M493.973663,629.005493 
	C493.576904,630.518860 493.180145,632.032227 492.625977,634.145935 
	C499.170837,634.145935 504.973724,634.004700 510.764923,634.203491 
	C513.811096,634.308105 515.297546,633.067627 516.170776,630.278259 
	C517.760254,625.200684 519.738281,620.242249 521.252136,615.144409 
	C522.231445,611.846863 524.071594,610.813538 527.440491,610.882812 
	C537.094055,611.081482 546.760437,611.144958 556.409180,610.848938 
	C560.412292,610.726074 562.014526,612.386353 562.997131,615.928955 
	C564.374573,620.894897 566.051880,625.789429 567.864563,630.615417 
	C568.371155,631.964294 569.760986,633.918945 570.822205,633.968933 
	C577.401611,634.278687 584.002930,634.124756 591.318054,634.124756 
	C590.393555,630.872009 589.816895,628.325806 588.950867,625.882080 
	C584.286194,612.719849 579.539124,599.586853 574.840576,586.436584 
	C568.744019,569.373352 562.615723,552.320984 556.629211,535.219116 
	C555.605225,532.293701 554.193115,530.945435 550.901123,531.065002 
	C544.416504,531.300537 537.913391,531.196960 531.423340,531.026855 
	C528.738525,530.956482 527.336975,531.641174 526.384460,534.448486 
	C515.757690,565.768066 504.963165,597.030701 493.973663,629.005493 
M416.011414,532.089783 
	C415.782990,532.533997 415.493713,532.957581 415.334808,533.425415 
	C405.322388,562.908325 395.313385,592.392273 385.326599,621.883789 
	C384.020386,625.741150 382.832733,629.638733 381.377991,634.179932 
	C388.527100,634.179932 394.836578,634.360229 401.119019,634.028564 
	C402.381836,633.961914 404.119476,632.172180 404.647705,630.796570 
	C406.733459,625.365051 408.202240,619.690918 410.407074,614.314758 
	C411.017303,612.826782 413.353180,611.155029 414.944824,611.105957 
	C425.267456,610.786987 435.604614,610.978027 445.933807,610.807556 
	C448.963989,610.757507 450.507782,612.014404 451.413940,614.745972 
	C453.195251,620.115540 455.019775,625.476868 457.067657,630.747803 
	C457.583099,632.074402 458.967834,633.980164 460.026581,634.028992 
	C466.586761,634.332153 473.167877,634.181458 480.179291,634.181458 
	C479.625885,632.108337 479.410889,630.980774 479.027008,629.914001 
	C474.356659,616.935608 469.607544,603.985352 464.985474,590.989807 
	C458.290863,572.167236 451.726501,553.297974 444.950531,534.504944 
	C444.450500,533.118164 442.710114,531.216492 441.518036,531.195984 
	C433.212006,531.052673 424.898499,531.342896 416.011414,532.089783 
M309.273621,634.194946 
	C327.925903,634.186157 346.578888,634.243408 365.229340,634.053345 
	C366.865906,634.036682 369.760193,632.555298 369.890717,631.487671 
	C370.425018,627.118103 370.113708,622.645020 370.113708,617.421570 
	C353.460388,617.421570 337.493652,617.421570 320.893188,617.421570 
	C321.728058,615.633179 322.021698,614.683044 322.559143,613.900146 
	C334.139343,597.033447 345.818146,580.233948 357.318665,563.313171 
	C363.023376,554.919861 370.491882,547.250488 368.132782,535.486145 
	C367.485260,532.257080 367.033966,530.971680 363.452240,531.001709 
	C341.969940,531.181885 320.485443,531.100647 299.001709,531.122009 
	C297.743713,531.123230 296.485840,531.255493 295.244019,531.325806 
	C295.244019,537.273621 295.244019,542.829285 295.244019,548.881714 
	C310.423889,548.881714 325.166779,548.881714 340.871277,548.881714 
	C339.814453,551.217957 339.323669,552.913391 338.378967,554.299561 
	C324.517395,574.638733 310.842743,595.113464 296.534515,615.134888 
	C292.325043,621.025269 291.659607,626.824463 292.548370,634.195435 
	C297.816284,634.195435 303.086731,634.195435 309.273621,634.194946 
M465.962555,482.666809 
	C468.257233,489.616699 470.766418,496.506317 472.743439,503.545441 
	C473.559845,506.452240 474.913361,507.132660 477.636719,507.085388 
	C485.293549,506.952454 492.964050,506.826508 500.609589,507.154205 
	C504.348724,507.314514 505.830383,505.866882 506.929688,502.517059 
	C516.002625,474.869293 525.254089,447.280182 534.393738,419.654236 
	C535.599304,416.010406 536.479187,412.258820 537.694702,407.893463 
	C531.408875,407.893463 526.245483,408.227814 521.147644,407.793457 
	C516.624817,407.408051 514.761047,409.106323 513.501038,413.369476 
	C506.571625,436.815521 499.353058,460.176239 492.191467,483.553314 
	C491.753204,484.983887 490.952728,486.303497 489.737457,488.940674 
	C488.627228,486.161041 488.001495,484.849945 487.570587,483.477661 
	C480.103241,459.696014 472.694885,435.895691 465.132538,412.144348 
	C464.625214,410.551056 463.060333,408.174927 461.871490,408.103943 
	C455.260437,407.709351 448.613617,407.914581 441.211334,407.914581 
	C449.533844,433.050537 457.623474,457.483093 465.962555,482.666809 
M761.661255,437.733307 
	C761.661255,460.663574 761.661255,483.593872 761.661255,507.030731 
	C766.930542,507.030731 771.582642,506.765656 776.189941,507.106659 
	C780.632874,507.435516 782.207581,506.211121 782.153870,501.391815 
	C781.894043,478.072632 782.137512,454.748199 781.972656,431.427246 
	C781.943298,427.267548 783.257446,425.821564 787.383972,425.959045 
	C794.539124,426.197449 801.712341,426.146637 808.867798,425.909607 
	C810.266052,425.863281 812.737854,424.503876 812.805847,423.605530 
	C813.189697,418.536438 812.991272,413.423279 812.991272,407.863647 
	C785.784668,407.863647 759.329102,407.824677 732.875000,408.008514 
	C731.834229,408.015747 730.067322,410.060883 729.917358,411.310028 
	C729.503113,414.758942 729.907288,418.296722 729.722717,421.785370 
	C729.553589,424.982269 730.679260,426.267883 734.008423,426.142059 
	C739.664307,425.928314 745.334290,426.048737 750.997925,426.089111 
	C762.688965,426.172516 761.165527,424.089935 761.661255,437.733307 
M296.823761,506.757416 
	C303.416077,506.757416 310.008362,506.757416 316.895264,506.757416 
	C316.986176,504.822662 317.129120,503.198364 317.128876,501.574066 
	C317.124786,475.451416 317.126953,449.328735 317.061951,423.206207 
	C317.050018,418.411591 318.576141,411.636780 316.096130,409.348572 
	C313.294250,406.763428 306.741028,408.456360 301.876617,407.837402 
	C296.520844,407.155975 295.577209,409.527985 295.617706,414.349121 
	C295.841217,440.968903 295.731964,467.591431 295.774414,494.212921 
	C295.780762,498.186554 295.986084,502.159821 296.823761,506.757416 
M589.502808,426.110443 
	C598.168030,426.095825 606.834595,425.990997 615.497803,426.116028 
	C618.490662,426.159210 619.810364,425.204559 619.588989,422.101196 
	C619.387939,419.283447 619.179993,416.404602 619.530334,413.622620 
	C620.159790,408.625153 618.021912,407.351379 613.327087,407.442688 
	C596.839111,407.763184 580.344482,407.745483 563.852417,407.846924 
	C560.398010,407.868164 556.943359,407.850037 553.263245,407.850037 
	C553.134094,409.338226 552.977173,410.307068 552.976379,411.276001 
	C552.952454,441.771027 552.997681,472.266327 552.863281,502.760803 
	C552.846802,506.499573 554.401306,507.168823 557.659851,507.148438 
	C575.656250,507.035858 593.653625,507.077850 611.650696,507.090546 
	C623.075684,507.098602 622.807739,507.109863 623.109436,495.928772 
	C623.247925,490.798767 621.369507,489.909698 616.723511,490.080841 
	C604.575745,490.528351 592.403748,490.281616 580.249756,490.613770 
	C575.411804,490.745972 573.618347,488.910553 573.975281,484.170135 
	C574.262390,480.358429 574.033081,476.508972 574.062866,472.676483 
	C574.111572,466.421051 574.403748,466.106232 580.473083,466.084534 
	C587.471863,466.059509 594.470825,466.092590 601.469666,466.085266 
	C614.412354,466.071655 614.277283,466.066956 614.284485,453.186371 
	C614.286621,449.305695 613.159058,447.878448 609.163269,447.964935 
	C599.169922,448.181213 589.166687,447.910400 579.170898,448.063751 
	C575.563354,448.119110 573.941345,446.885986 574.079590,443.193512 
	C574.229126,439.200073 574.255554,435.190491 574.076965,431.199554 
	C573.898682,427.212799 575.741211,425.849579 579.507446,426.080872 
	C582.495544,426.264465 585.504150,426.113525 589.502808,426.110443 
z"/>
<path fill="#0164E7" opacity="1.000000" stroke="none" 
	d="
M258.533966,555.881958 
	C258.624573,558.999023 258.715179,562.116028 258.406555,565.885864 
	C257.621582,567.953308 257.227295,569.365784 256.851532,570.783081 
	C254.980408,577.840393 254.212585,585.440002 251.049637,591.860107 
	C239.444809,615.415283 219.782867,628.044800 193.744171,628.728088 
	C161.448502,629.575562 129.113937,628.995361 96.796417,628.924011 
	C86.915276,628.902161 84.619858,626.746094 83.196564,616.618591 
	C83.589981,613.947266 83.979195,611.642700 83.980347,609.338013 
	C84.012405,545.233765 84.005119,481.129486 84.200134,416.730438 
	C87.698402,415.294952 90.993515,413.188416 94.304451,413.163239 
	C126.755562,412.916656 159.210632,412.844727 191.661728,413.093994 
	C206.981339,413.211670 222.652893,410.677612 237.294403,417.746857 
	C237.294403,417.746857 237.214630,417.764862 237.261169,418.079529 
	C240.594727,424.795197 245.483536,430.871613 246.859390,437.660004 
	C250.540878,455.824127 246.183060,472.765289 235.563675,488.059631 
	C233.826874,490.561035 232.650467,493.451508 231.215042,496.162170 
	C231.215042,496.162170 231.197235,496.185913 230.844513,496.234924 
	C229.160233,497.227142 227.697418,498.030457 226.518570,499.136383 
	C219.284210,505.923218 212.143158,512.809509 204.911438,519.599182 
	C200.712448,523.541565 196.402328,527.365540 192.142227,531.242798 
	C192.142242,531.242798 192.152542,531.174377 191.814301,531.171631 
	C190.026871,531.898254 188.488647,532.492737 187.143631,533.380066 
	C180.620224,537.683838 174.354050,542.418274 167.616745,546.348755 
	C152.692917,555.055237 137.515976,563.326965 122.514275,571.901978 
	C120.542030,573.029297 118.133652,574.583130 117.441589,576.489197 
	C116.328743,579.554260 115.462006,583.433228 116.457436,586.281067 
	C117.106758,588.138672 121.285576,589.843994 123.794922,589.726685 
	C127.974701,589.531311 132.448608,588.525940 136.154221,586.613159 
	C147.528122,580.742126 158.672958,574.410217 169.733185,567.959656 
	C172.792160,566.175598 175.245773,563.353699 177.977127,561.007935 
	C177.977127,561.007935 177.990234,560.957458 178.376740,560.963501 
	C180.133606,560.423218 181.702972,560.142395 182.842789,559.288330 
	C191.728561,552.630432 200.733063,546.106689 209.298126,539.052429 
	C216.442276,533.168457 222.900009,526.457642 229.934967,520.432007 
	C234.132904,516.836365 237.305664,517.201965 241.367508,520.948059 
	C246.818329,525.975159 250.967804,531.913574 253.281586,539.008057 
	C255.107971,544.608032 256.788605,550.255554 258.533966,555.881958 
z"/>
<path fill="#0364E2" opacity="1.000000" stroke="none" 
	d="
M424.790802,505.015198 
	C423.792328,505.696289 422.812378,506.932281 421.792328,506.966309 
	C416.137878,507.154846 410.464386,507.227295 404.819214,506.927917 
	C403.342529,506.849579 401.462830,505.641174 400.581482,504.382355 
	C388.185577,486.676971 375.939148,468.866974 363.624695,451.104370 
	C362.648010,449.695557 361.437134,448.449036 359.252563,447.554108 
	C359.252563,467.083099 359.252563,486.612091 359.252563,506.608276 
	C351.990448,506.608276 345.311798,506.608276 338.311707,506.608276 
	C338.311707,473.913849 338.311707,441.356628 338.311707,407.933258 
	C344.346741,407.933258 350.410767,407.822083 356.462219,408.047913 
	C357.418121,408.083618 358.516235,409.504913 359.213226,410.516632 
	C373.179077,430.789337 387.079376,451.107269 401.079895,471.355927 
	C401.657684,472.191498 403.081696,472.442017 404.687378,472.714233 
	C405.504883,470.880676 405.951599,469.298645 405.956329,467.715302 
	C406.003876,451.755127 405.974823,435.794708 405.976044,419.834381 
	C405.976807,409.826538 405.983459,409.826508 415.818176,409.953461 
	C422.890656,410.044800 423.053162,410.189606 423.057648,417.292358 
	C423.074677,444.391693 423.039612,471.491180 423.160004,498.589996 
	C423.169525,500.734131 424.222656,502.873566 424.790802,505.015198 
z"/>
<path fill="#0464E0" opacity="1.000000" stroke="none" 
	d="
M670.473450,586.477661 
	C669.544434,587.217163 668.938171,587.800171 668.250366,588.261658 
	C661.902344,592.520874 661.880554,592.525024 665.654968,599.052917 
	C671.397339,608.984253 677.180054,618.892273 682.908630,628.831482 
	C683.639282,630.098999 684.147583,631.494690 685.345642,634.113525 
	C679.702209,634.113525 674.818115,633.706360 670.031982,634.216858 
	C664.083984,634.851318 660.650879,632.905212 658.174133,627.241882 
	C654.447815,618.721069 649.504578,610.739502 645.577759,602.296509 
	C643.198853,597.181702 640.300232,594.626099 634.217957,594.977173 
	C624.851990,595.517761 624.821350,595.091064 624.813782,604.642883 
	C624.806213,614.260498 624.812134,623.878113 624.812134,634.112488 
	C618.346924,634.112488 612.406433,634.191467 606.469421,634.082581 
	C602.973267,634.018494 603.907288,631.178162 603.903076,629.231018 
	C603.847717,603.752075 603.861694,578.273010 603.858643,552.793945 
	C603.857849,545.826477 603.858521,538.858948 603.858521,532.207214 
	C604.550354,531.697144 604.813477,531.333984 605.065979,531.341309 
	C621.999451,531.828430 639.018066,531.484558 655.834595,533.162903 
	C667.035950,534.280823 675.753052,541.408447 678.768860,552.739380 
	C682.033508,565.005127 681.135437,576.938782 670.473450,586.477661 
M624.864014,550.795776 
	C624.833557,558.792419 624.683594,566.792175 624.888306,574.782776 
	C624.923096,576.139709 626.515320,578.634155 627.328979,578.610046 
	C634.764526,578.389771 642.304443,578.351868 649.573608,576.983887 
	C654.706665,576.017944 657.926697,571.597717 658.820984,566.307129 
	C659.692139,561.153198 659.029175,555.937561 654.262512,552.898193 
	C645.167847,547.099304 635.189941,547.528931 624.864014,550.795776 
z"/>
<path fill="#0464E0" opacity="1.000000" stroke="none" 
	d="
M640.594177,424.640686 
	C644.830322,414.517242 652.757751,409.423889 662.502686,406.816772 
	C675.994019,403.207397 689.332458,403.717255 701.931213,410.091431 
	C712.024170,415.197876 717.487122,423.782135 718.737610,436.070160 
	C711.662170,436.716187 704.681824,437.353546 697.785156,437.983276 
	C693.176819,423.175964 684.342773,421.185089 669.579651,423.805389 
	C663.887329,424.815704 660.243713,429.259918 660.186523,434.052368 
	C660.121216,439.529327 664.301453,441.469025 668.465271,442.722931 
	C676.248474,445.066833 684.178833,446.923218 692.052979,448.962982 
	C699.841736,450.980621 707.545532,453.253845 713.274902,459.365692 
	C727.171631,474.189728 721.538025,499.328064 702.265076,506.454590 
	C685.694031,512.582031 668.960632,512.416382 652.908264,504.103821 
	C645.074036,500.046936 640.303467,493.456665 638.171814,484.906158 
	C637.301025,481.413300 638.447205,479.467590 642.135437,479.182800 
	C646.950317,478.811035 651.767578,478.115875 656.574219,478.188934 
	C658.196777,478.213593 660.508789,479.783722 661.283081,481.280121 
	C667.364380,493.033447 683.958069,497.004517 694.642334,489.039246 
	C700.878540,484.390076 700.809692,475.011749 693.942322,471.597656 
	C688.203796,468.744751 681.781921,467.280762 675.695251,465.110291 
	C667.277100,462.108521 658.394653,459.940521 650.607422,455.749817 
	C639.553772,449.801300 635.925049,436.900452 640.594177,424.640686 
z"/>
<path fill="#0463E2" opacity="1.000000" stroke="none" 
	d="
M494.093750,628.657104 
	C504.963165,597.030701 515.757690,565.768066 526.384460,534.448486 
	C527.336975,531.641174 528.738525,530.956482 531.423340,531.026855 
	C537.913391,531.196960 544.416504,531.300537 550.901123,531.065002 
	C554.193115,530.945435 555.605225,532.293701 556.629211,535.219116 
	C562.615723,552.320984 568.744019,569.373352 574.840576,586.436584 
	C579.539124,599.586853 584.286194,612.719849 588.950867,625.882080 
	C589.816895,628.325806 590.393555,630.872009 591.318054,634.124756 
	C584.002930,634.124756 577.401611,634.278687 570.822205,633.968933 
	C569.760986,633.918945 568.371155,631.964294 567.864563,630.615417 
	C566.051880,625.789429 564.374573,620.894897 562.997131,615.928955 
	C562.014526,612.386353 560.412292,610.726074 556.409180,610.848938 
	C546.760437,611.144958 537.094055,611.081482 527.440491,610.882812 
	C524.071594,610.813538 522.231445,611.846863 521.252136,615.144409 
	C519.738281,620.242249 517.760254,625.200684 516.170776,630.278259 
	C515.297546,633.067627 513.811096,634.308105 510.764923,634.203491 
	C504.973724,634.004700 499.170837,634.145935 492.625977,634.145935 
	C493.180145,632.032227 493.576904,630.518860 494.093750,628.657104 
M540.977295,556.946716 
	C536.987305,568.182312 532.930969,579.395630 529.121887,590.692261 
	C528.784241,591.693604 530.023621,594.346375 530.587585,594.363525 
	C538.606934,594.608276 546.636047,594.530396 555.570801,594.530396 
	C552.450928,585.535583 549.887085,577.850281 547.108704,570.243225 
	C545.426147,565.636536 543.411438,561.151184 540.977295,556.946716 
z"/>
<path fill="#0463E2" opacity="1.000000" stroke="none" 
	d="
M416.299377,531.791992 
	C424.898499,531.342896 433.212006,531.052673 441.518036,531.195984 
	C442.710114,531.216492 444.450500,533.118164 444.950531,534.504944 
	C451.726501,553.297974 458.290863,572.167236 464.985474,590.989807 
	C469.607544,603.985352 474.356659,616.935608 479.027008,629.914001 
	C479.410889,630.980774 479.625885,632.108337 480.179291,634.181458 
	C473.167877,634.181458 466.586761,634.332153 460.026581,634.028992 
	C458.967834,633.980164 457.583099,632.074402 457.067657,630.747803 
	C455.019775,625.476868 453.195251,620.115540 451.413940,614.745972 
	C450.507782,612.014404 448.963989,610.757507 445.933807,610.807556 
	C435.604614,610.978027 425.267456,610.786987 414.944824,611.105957 
	C413.353180,611.155029 411.017303,612.826782 410.407074,614.314758 
	C408.202240,619.690918 406.733459,625.365051 404.647705,630.796570 
	C404.119476,632.172180 402.381836,633.961914 401.119019,634.028564 
	C394.836578,634.360229 388.527100,634.179932 381.377991,634.179932 
	C382.832733,629.638733 384.020386,625.741150 385.326599,621.883789 
	C395.313385,592.392273 405.322388,562.908325 415.334808,533.425415 
	C415.493713,532.957581 415.782990,532.533997 416.299377,531.791992 
M442.785645,589.547729 
	C438.833282,578.460938 434.880890,567.374146 430.928528,556.287354 
	C430.348358,556.351013 429.768188,556.414734 429.187988,556.478394 
	C425.095551,568.815735 421.003082,581.153076 416.585693,594.470032 
	C425.466095,594.470032 433.231201,594.519836 440.995117,594.446106 
	C444.197357,594.415649 443.760956,592.357483 442.785645,589.547729 
z"/>
<path fill="#0564E0" opacity="1.000000" stroke="none" 
	d="
M308.815399,634.195190 
	C303.086731,634.195435 297.816284,634.195435 292.548370,634.195435 
	C291.659607,626.824463 292.325043,621.025269 296.534515,615.134888 
	C310.842743,595.113464 324.517395,574.638733 338.378967,554.299561 
	C339.323669,552.913391 339.814453,551.217957 340.871277,548.881714 
	C325.166779,548.881714 310.423889,548.881714 295.244019,548.881714 
	C295.244019,542.829285 295.244019,537.273621 295.244019,531.325806 
	C296.485840,531.255493 297.743713,531.123230 299.001709,531.122009 
	C320.485443,531.100647 341.969940,531.181885 363.452240,531.001709 
	C367.033966,530.971680 367.485260,532.257080 368.132782,535.486145 
	C370.491882,547.250488 363.023376,554.919861 357.318665,563.313171 
	C345.818146,580.233948 334.139343,597.033447 322.559143,613.900146 
	C322.021698,614.683044 321.728058,615.633179 320.893188,617.421570 
	C337.493652,617.421570 353.460388,617.421570 370.113708,617.421570 
	C370.113708,622.645020 370.425018,627.118103 369.890717,631.487671 
	C369.760193,632.555298 366.865906,634.036682 365.229340,634.053345 
	C346.578888,634.243408 327.925903,634.186157 308.815399,634.195190 
z"/>
<path fill="#0464E1" opacity="1.000000" stroke="none" 
	d="
M465.837830,482.291229 
	C457.623474,457.483093 449.533844,433.050537 441.211334,407.914581 
	C448.613617,407.914581 455.260437,407.709351 461.871490,408.103943 
	C463.060333,408.174927 464.625214,410.551056 465.132538,412.144348 
	C472.694885,435.895691 480.103241,459.696014 487.570587,483.477661 
	C488.001495,484.849945 488.627228,486.161041 489.737457,488.940674 
	C490.952728,486.303497 491.753204,484.983887 492.191467,483.553314 
	C499.353058,460.176239 506.571625,436.815521 513.501038,413.369476 
	C514.761047,409.106323 516.624817,407.408051 521.147644,407.793457 
	C526.245483,408.227814 531.408875,407.893463 537.694702,407.893463 
	C536.479187,412.258820 535.599304,416.010406 534.393738,419.654236 
	C525.254089,447.280182 516.002625,474.869293 506.929688,502.517059 
	C505.830383,505.866882 504.348724,507.314514 500.609589,507.154205 
	C492.964050,506.826508 485.293549,506.952454 477.636719,507.085388 
	C474.913361,507.132660 473.559845,506.452240 472.743439,503.545441 
	C470.766418,496.506317 468.257233,489.616699 465.837830,482.291229 
z"/>
<path fill="#0565E1" opacity="1.000000" stroke="none" 
	d="
M761.660889,437.262207 
	C761.165527,424.089935 762.688965,426.172516 750.997925,426.089111 
	C745.334290,426.048737 739.664307,425.928314 734.008423,426.142059 
	C730.679260,426.267883 729.553589,424.982269 729.722717,421.785370 
	C729.907288,418.296722 729.503113,414.758942 729.917358,411.310028 
	C730.067322,410.060883 731.834229,408.015747 732.875000,408.008514 
	C759.329102,407.824677 785.784668,407.863647 812.991272,407.863647 
	C812.991272,413.423279 813.189697,418.536438 812.805847,423.605530 
	C812.737854,424.503876 810.266052,425.863281 808.867798,425.909607 
	C801.712341,426.146637 794.539124,426.197449 787.383972,425.959045 
	C783.257446,425.821564 781.943298,427.267548 781.972656,431.427246 
	C782.137512,454.748199 781.894043,478.072632 782.153870,501.391815 
	C782.207581,506.211121 780.632874,507.435516 776.189941,507.106659 
	C771.582642,506.765656 766.930542,507.030731 761.661255,507.030731 
	C761.661255,483.593872 761.661255,460.663574 761.660889,437.262207 
z"/>
<path fill="#0465E4" opacity="1.000000" stroke="none" 
	d="
M296.461548,506.445343 
	C295.986084,502.159821 295.780762,498.186554 295.774414,494.212921 
	C295.731964,467.591431 295.841217,440.968903 295.617706,414.349121 
	C295.577209,409.527985 296.520844,407.155975 301.876617,407.837402 
	C306.741028,408.456360 313.294250,406.763428 316.096130,409.348572 
	C318.576141,411.636780 317.050018,418.411591 317.061951,423.206207 
	C317.126953,449.328735 317.124786,475.451416 317.128876,501.574066 
	C317.129120,503.198364 316.986176,504.822662 316.895264,506.757416 
	C310.008362,506.757416 303.416077,506.757416 296.461548,506.445343 
z"/>
<path fill="#1D6CCF" opacity="1.000000" stroke="none" 
	d="
M589.003235,426.110779 
	C585.504150,426.113525 582.495544,426.264465 579.507446,426.080872 
	C575.741211,425.849579 573.898682,427.212799 574.076965,431.199554 
	C574.255554,435.190491 574.229126,439.200073 574.079590,443.193512 
	C573.941345,446.885986 575.563354,448.119110 579.170898,448.063751 
	C589.166687,447.910400 599.169922,448.181213 609.163269,447.964935 
	C613.159058,447.878448 614.286621,449.305695 614.284485,453.186371 
	C614.277283,466.066956 614.412354,466.071655 601.469666,466.085266 
	C594.470825,466.092590 587.471863,466.059509 580.473083,466.084534 
	C574.403748,466.106232 574.111572,466.421051 574.062866,472.676483 
	C574.033081,476.508972 574.262390,480.358429 573.975281,484.170135 
	C573.618347,488.910553 575.411804,490.745972 580.249756,490.613770 
	C592.403748,490.281616 604.575745,490.528351 616.723511,490.080841 
	C621.369507,489.909698 623.247925,490.798767 623.109436,495.928772 
	C622.807739,507.109863 623.075684,507.098602 611.650696,507.090546 
	C593.653625,507.077850 575.656250,507.035858 557.659851,507.148438 
	C554.401306,507.168823 552.846802,506.499573 552.863281,502.760803 
	C552.997681,472.266327 552.952454,441.771027 552.976379,411.276001 
	C552.977173,410.307068 553.134094,409.338226 553.263245,407.850037 
	C556.943359,407.850037 560.398010,407.868164 563.852417,407.846924 
	C580.344482,407.745483 596.839111,407.763184 613.327087,407.442688 
	C618.021912,407.351379 620.159790,408.625153 619.530334,413.622620 
	C619.179993,416.404602 619.387939,419.283447 619.588989,422.101196 
	C619.810364,425.204559 618.490662,426.159210 615.497803,426.116028 
	C606.834595,425.990997 598.168030,426.095825 589.003235,426.110779 
M604.497009,491.975677 
	C596.000366,491.968628 587.502625,492.043060 579.007568,491.924561 
	C573.753662,491.851288 572.162109,490.239166 572.090881,484.953766 
	C572.043884,481.468292 572.538513,477.977936 572.555420,474.488647 
	C572.601196,465.067780 573.477356,464.006256 582.948975,464.098938 
	C590.763672,464.175354 598.576172,464.807678 606.386658,464.754395 
	C608.487732,464.740051 612.247314,463.313080 612.372681,462.208466 
	C612.822876,458.242218 612.098206,454.129700 611.607422,450.098053 
	C611.573669,449.820526 609.812195,449.601807 608.856873,449.611938 
	C601.532410,449.689392 594.208740,449.910736 586.884399,449.934845 
	C572.023926,449.983765 572.023804,449.944183 572.041260,435.082947 
	C572.052551,425.439728 573.328308,424.103821 582.899231,424.074097 
	C592.527222,424.044220 602.161499,424.322052 611.781555,424.053894 
	C618.182861,423.875488 618.089783,423.310303 618.075928,414.727356 
	C618.067139,409.303711 614.954224,409.009766 610.902588,409.030365 
	C596.075562,409.105591 581.247864,409.036835 566.420532,409.071747 
	C563.763123,409.078003 561.096619,409.220215 558.451721,409.477783 
	C555.582153,409.757233 553.988281,411.232971 553.992798,414.372345 
	C554.034607,443.193939 554.030701,472.015656 554.000244,500.837280 
	C553.996521,504.357483 555.521301,506.032013 559.105713,506.024506 
	C578.264465,505.984344 597.423828,506.056000 616.581482,505.902771 
	C618.112671,505.890503 620.305115,504.867432 621.041016,503.630341 
	C624.206055,498.309845 620.534973,492.020721 614.490906,491.972534 
	C611.492371,491.948608 608.493408,491.972900 604.497009,491.975677 
z"/>
<path fill="#1D6CCF" opacity="1.000000" stroke="none" 
	d="
M237.139084,417.454224 
	C222.652893,410.677612 206.981339,413.211670 191.661728,413.093994 
	C159.210632,412.844727 126.755562,412.916656 94.304451,413.163239 
	C90.993515,413.188416 87.698402,415.294952 84.007980,417.092957 
	C83.413017,419.555420 83.025803,421.360504 83.025047,423.165710 
	C82.998123,487.772247 83.007332,552.378784 83.011497,616.985291 
	C84.619858,626.746094 86.915276,628.902161 96.796417,628.924011 
	C129.113937,628.995361 161.448502,629.575562 193.744171,628.728088 
	C219.782867,628.044800 239.444809,615.415283 251.049637,591.860107 
	C254.212585,585.440002 254.980408,577.840393 256.851532,570.783081 
	C257.227295,569.365784 257.621582,567.953308 258.276306,566.337830 
	C258.628113,592.639893 241.272827,617.578613 216.254974,625.583252 
	C207.980743,628.230713 199.083618,630.077026 190.438309,630.214417 
	C158.448730,630.723083 126.445198,630.413452 94.447289,630.303162 
	C84.748993,630.269775 81.387955,626.908569 81.386131,617.384460 
	C81.373749,552.556458 81.397827,487.728424 81.471001,422.900482 
	C81.481216,413.849518 84.025803,411.523254 93.176521,411.529877 
	C135.173615,411.560303 177.170715,411.621277 219.167770,411.604401 
	C225.737320,411.601776 231.618210,413.471893 237.139084,417.454224 
z"/>
<path fill="#1D6CCF" opacity="1.000000" stroke="none" 
	d="
M177.626312,561.064697 
	C175.245773,563.353699 172.792160,566.175598 169.733185,567.959656 
	C158.672958,574.410217 147.528122,580.742126 136.154221,586.613159 
	C132.448608,588.525940 127.974701,589.531311 123.794922,589.726685 
	C121.285576,589.843994 117.106758,588.138672 116.457436,586.281067 
	C115.462006,583.433228 116.328743,579.554260 117.441589,576.489197 
	C118.133652,574.583130 120.542030,573.029297 122.514275,571.901978 
	C137.515976,563.326965 152.692917,555.055237 167.616745,546.348755 
	C174.354050,542.418274 180.620224,537.683838 187.143631,533.380066 
	C188.488647,532.492737 190.026871,531.898254 191.846558,531.184082 
	C181.193817,538.615540 170.400146,546.406067 159.084412,553.345337 
	C147.171021,560.651123 134.756592,567.139587 122.568550,573.998413 
	C121.702362,574.485901 120.847450,575.020081 120.073509,575.640198 
	C117.014435,578.091248 115.616295,581.248962 117.460060,584.881653 
	C119.276581,588.460510 122.669266,589.847473 126.352364,588.236389 
	C135.465714,584.249939 144.615021,580.267151 153.385620,575.598633 
	C161.592346,571.230225 169.330887,565.982300 177.626312,561.064697 
z"/>
<path fill="#1D6CCF" opacity="1.000000" stroke="none" 
	d="
M424.872681,504.551514 
	C424.222656,502.873566 423.169525,500.734131 423.160004,498.589996 
	C423.039612,471.491180 423.074677,444.391693 423.057648,417.292358 
	C423.053162,410.189606 422.890656,410.044800 415.818176,409.953461 
	C405.983459,409.826508 405.976807,409.826538 405.976044,419.834381 
	C405.974823,435.794708 406.003876,451.755127 405.956329,467.715302 
	C405.951599,469.298645 405.504883,470.880676 405.007202,472.491943 
	C404.739349,469.455414 404.727600,466.390198 404.805481,462.404175 
	C404.908600,445.248322 404.922089,429.013367 404.935608,412.778381 
	C404.870697,412.004761 404.805786,411.231140 404.829193,410.076569 
	C404.917511,409.695618 404.943695,409.684570 404.943695,409.684570 
	C405.613068,409.105713 406.271942,408.039734 406.953491,408.024963 
	C412.490204,407.905396 418.031586,407.955902 423.569763,408.054565 
	C423.980743,408.061890 424.377838,408.846130 424.687744,409.799316 
	C424.575104,410.546967 424.585907,410.763641 424.626465,410.979431 
	C424.722198,418.014404 424.817963,425.049408 424.777161,432.668640 
	C424.602844,433.510132 424.614624,433.766083 424.675964,434.020721 
	C424.768829,457.376434 424.861664,480.732117 424.872681,504.551514 
z"/>
<path fill="#1D6CCF" opacity="1.000000" stroke="none" 
	d="
M258.611969,555.480896 
	C256.788605,550.255554 255.107971,544.608032 253.281586,539.008057 
	C250.967804,531.913574 246.818329,525.975159 241.367508,520.948059 
	C237.305664,517.201965 234.132904,516.836365 229.934967,520.432007 
	C222.900009,526.457642 216.442276,533.168457 209.298126,539.052429 
	C200.733063,546.106689 191.728561,552.630432 182.842789,559.288330 
	C181.702972,560.142395 180.133606,560.423218 178.398376,560.978027 
	C188.966171,552.611694 200.056183,544.431580 210.765610,535.780334 
	C216.169647,531.414917 220.926208,526.238708 225.900772,521.353027 
	C233.084946,514.297180 236.291550,514.099731 243.486954,520.763062 
	C253.462357,530.000854 257.100616,542.099121 258.611969,555.480896 
z"/>
<path fill="#1D6CCF" opacity="1.000000" stroke="none" 
	d="
M231.489899,495.997681 
	C232.650467,493.451508 233.826874,490.561035 235.563675,488.059631 
	C246.183060,472.765289 250.540878,455.824127 246.859390,437.660004 
	C245.483536,430.871613 240.594727,424.795197 237.279175,418.042786 
	C245.395996,423.277710 248.006226,431.805389 249.102493,440.889099 
	C251.622040,461.766327 245.240570,479.946625 231.489899,495.997681 
z"/>
<path fill="#1D6CCF" opacity="1.000000" stroke="none" 
	d="
M192.477264,531.149292 
	C196.402328,527.365540 200.712448,523.541565 204.911438,519.599182 
	C212.143158,512.809509 219.284210,505.923218 226.518570,499.136383 
	C227.697418,498.030457 229.160233,497.227142 230.835602,496.246765 
	C220.496689,510.144104 206.700699,520.650818 192.477264,531.149292 
z"/>
<path fill="#0364E2" opacity="1.000000" stroke="none" 
	d="
M404.836731,413.190369 
	C404.922089,429.013367 404.908600,445.248322 404.934082,462.004364 
	C404.894623,446.217712 404.816254,429.910034 404.836731,413.190369 
z"/>
<path fill="#0364E2" opacity="1.000000" stroke="none" 
	d="
M424.744812,433.766052 
	C424.614624,433.766083 424.602844,433.510132 424.666290,433.125427 
	C424.732513,433.169098 424.773102,433.340240 424.744812,433.766052 
z"/>
<path fill="#0364E2" opacity="1.000000" stroke="none" 
	d="
M404.920898,409.612518 
	C404.943695,409.684570 404.917511,409.695618 404.929504,409.698120 
	C404.941467,409.700653 404.898132,409.540466 404.920898,409.612518 
z"/>
<path fill="#0364E2" opacity="1.000000" stroke="none" 
	d="
M424.684814,410.762604 
	C424.585907,410.763641 424.575104,410.546967 424.605347,410.222168 
	C424.616577,410.114899 424.743164,410.545776 424.684814,410.762604 
z"/>
<path fill="#0564E0" opacity="1.000000" stroke="none" 
	d="
M83.196564,616.618591 
	C83.007332,552.378784 82.998123,487.772247 83.025047,423.165710 
	C83.025803,421.360504 83.413017,419.555420 83.812172,417.387756 
	C84.005119,481.129486 84.012405,545.233765 83.980347,609.338013 
	C83.979195,611.642700 83.589981,613.947266 83.196564,616.618591 
z"/>
<path fill="#01030B" opacity="1.000000" stroke="none" 
	d="
M624.994934,550.342896 
	C635.189941,547.528931 645.167847,547.099304 654.262512,552.898193 
	C659.029175,555.937561 659.692139,561.153198 658.820984,566.307129 
	C657.926697,571.597717 654.706665,576.017944 649.573608,576.983887 
	C642.304443,578.351868 634.764526,578.389771 627.328979,578.610046 
	C626.515320,578.634155 624.923096,576.139709 624.888306,574.782776 
	C624.683594,566.792175 624.833557,558.792419 624.994934,550.342896 
z"/>
<path fill="#010614" opacity="1.000000" stroke="none" 
	d="
M541.261597,556.778992 
	C543.411438,561.151184 545.426147,565.636536 547.108704,570.243225 
	C549.887085,577.850281 552.450928,585.535583 555.570801,594.530396 
	C546.636047,594.530396 538.606934,594.608276 530.587585,594.363525 
	C530.023621,594.346375 528.784241,591.693604 529.121887,590.692261 
	C532.930969,579.395630 536.987305,568.182312 541.261597,556.778992 
z"/>
<path fill="#010614" opacity="1.000000" stroke="none" 
	d="
M442.906891,589.911743 
	C443.760956,592.357483 444.197357,594.415649 440.995117,594.446106 
	C433.231201,594.519836 425.466095,594.470032 416.585693,594.470032 
	C421.003082,581.153076 425.095551,568.815735 429.187988,556.478394 
	C429.768188,556.414734 430.348358,556.351013 430.928528,556.287354 
	C434.880890,567.374146 438.833282,578.460938 442.906891,589.911743 
z"/>
<path fill="#0465E2" opacity="1.000000" stroke="none" 
	d="
M604.995850,491.975555 
	C608.493408,491.972900 611.492371,491.948608 614.490906,491.972534 
	C620.534973,492.020721 624.206055,498.309845 621.041016,503.630341 
	C620.305115,504.867432 618.112671,505.890503 616.581482,505.902771 
	C597.423828,506.056000 578.264465,505.984344 559.105713,506.024506 
	C555.521301,506.032013 553.996521,504.357483 554.000244,500.837280 
	C554.030701,472.015656 554.034607,443.193939 553.992798,414.372345 
	C553.988281,411.232971 555.582153,409.757233 558.451721,409.477783 
	C561.096619,409.220215 563.763123,409.078003 566.420532,409.071747 
	C581.247864,409.036835 596.075562,409.105591 610.902588,409.030365 
	C614.954224,409.009766 618.067139,409.303711 618.075928,414.727356 
	C618.089783,423.310303 618.182861,423.875488 611.781555,424.053894 
	C602.161499,424.322052 592.527222,424.044220 582.899231,424.074097 
	C573.328308,424.103821 572.052551,425.439728 572.041260,435.082947 
	C572.023804,449.944183 572.023926,449.983765 586.884399,449.934845 
	C594.208740,449.910736 601.532410,449.689392 608.856873,449.611938 
	C609.812195,449.601807 611.573669,449.820526 611.607422,450.098053 
	C612.098206,454.129700 612.822876,458.242218 612.372681,462.208466 
	C612.247314,463.313080 608.487732,464.740051 606.386658,464.754395 
	C598.576172,464.807678 590.763672,464.175354 582.948975,464.098938 
	C573.477356,464.006256 572.601196,465.067780 572.555420,474.488647 
	C572.538513,477.977936 572.043884,481.468292 572.090881,484.953766 
	C572.162109,490.239166 573.753662,491.851288 579.007568,491.924561 
	C587.502625,492.043060 596.000366,491.968628 604.995850,491.975555 
z"/>
</svg>