<?xml version="1.0" standalone="no"?>
<!DOCTYPE svg PUBLIC "-//W3C//DTD SVG 20010904//EN"
 "http://www.w3.org/TR/2001/REC-SVG-20010904/DTD/svg10.dtd">
<svg version="1.0" xmlns="http://www.w3.org/2000/svg"
 width="1536.000000pt" height="1024.000000pt" viewBox="0 0 1536.000000 1024.000000"
 preserveAspectRatio="xMidYMid meet">

<g transform="translate(0.000000,1024.000000) scale(0.100000,-0.100000)"
fill="#000000" stroke="none">
<path d="M4480 6920 c-41 -11 -178 -45 -305 -75 -275 -67 -265 -64 -265 -75 0
-5 52 -55 115 -111 63 -56 116 -108 119 -115 6 -16 -273 -342 -444 -518 -300
-307 -645 -573 -963 -741 -119 -63 -339 -154 -449 -186 -43 -12 -78 -25 -78
-29 0 -30 107 -60 209 -60 283 0 618 118 962 340 384 247 717 549 1008 916
l64 80 69 -50 c83 -62 150 -98 160 -88 4 4 1 43 -7 87 -8 44 -33 193 -55 331
-47 295 -51 314 -59 313 -3 0 -40 -9 -81 -19z"/>
<path d="M9911 6465 c-86 -19 -165 -59 -213 -107 -84 -84 -119 -228 -83 -339
48 -146 135 -202 437 -278 189 -47 238 -82 238 -167 0 -63 -21 -98 -75 -124
-40 -19 -58 -22 -128 -18 -131 7 -199 55 -215 150 -6 29 -13 42 -22 41 -8 -1
-66 -9 -127 -19 -129 -19 -125 -14 -98 -118 46 -177 208 -276 450 -277 132 0
195 13 284 58 132 67 193 171 193 330 0 66 -5 92 -25 135 -53 115 -136 166
-377 231 -196 53 -207 57 -248 92 -64 53 -48 146 32 185 56 27 174 28 231 1
52 -24 74 -50 96 -113 20 -60 11 -57 136 -32 40 8 84 14 99 14 26 0 27 1 21
51 -16 137 -107 238 -259 290 -83 28 -256 35 -347 14z"/>
<path d="M6900 6050 l0 -405 -34 65 c-18 36 -60 110 -93 165 -33 55 -122 207
-198 338 l-138 237 -148 0 -149 0 0 -610 0 -610 125 0 125 0 0 428 0 427 29
-50 c16 -27 74 -129 128 -225 55 -96 150 -263 212 -370 61 -107 111 -198 111
-202 0 -4 63 -8 140 -8 l140 0 0 609 0 610 -125 3 -125 3 0 -405z"/>
<path d="M7447 6452 c-117 -2 -128 -4 -122 -20 4 -9 13 -36 21 -59 8 -24 37
-105 65 -180 28 -76 61 -169 75 -208 13 -38 80 -223 148 -410 l124 -340 144
-3 143 -3 29 83 c102 294 221 629 303 853 52 143 95 265 96 270 3 15 -1 15
-137 15 l-124 0 -56 -157 c-61 -173 -182 -530 -224 -660 -14 -46 -28 -83 -31
-83 -4 0 -34 85 -68 188 -152 462 -239 711 -248 714 -5 2 -68 2 -138 0z"/>
<path d="M8650 6455 c0 0 -1 -276 -3 -613 l-2 -612 398 0 397 0 0 110 0 110
-275 0 -275 0 0 150 0 150 245 0 245 0 0 105 0 105 -245 0 -245 0 0 135 0 135
260 0 261 0 -3 110 -3 111 -378 2 c-207 1 -377 2 -377 2z"/>
<path d="M10738 6452 l-58 -3 0 -109 0 -110 170 0 170 0 0 -500 0 -500 120 0
120 0 0 500 0 500 163 0 162 0 3 110 4 110 -399 2 c-219 2 -424 2 -455 0z"/>
<path d="M5662 5843 l3 -608 128 -3 127 -3 0 611 0 610 -130 0 -130 0 2 -607z"/>
<path d="M4398 5875 c-15 -9 -32 -24 -38 -35 -7 -12 -10 -365 -10 -1052 0
-890 2 -1036 15 -1054 27 -40 62 -46 255 -42 l182 3 24 28 24 28 0 1039 0
1039 -24 28 -24 28 -189 2 c-152 2 -193 0 -215 -12z"/>
<path d="M3669 5261 l-29 -29 0 -741 0 -740 24 -28 24 -28 197 0 197 0 24 28
24 28 0 740 0 741 -29 29 -29 29 -187 0 -187 0 -29 -29z"/>
<path d="M5660 4790 l0 -110 265 0 264 0 -66 -102 c-37 -57 -158 -242 -270
-412 l-204 -309 3 -81 3 -81 418 -3 417 -2 0 115 0 115 -260 0 -259 0 62 90
c60 87 301 449 419 628 l57 87 0 88 1 87 -425 0 -425 0 0 -110z"/>
<path d="M7076 4888 c-12 -39 -107 -317 -247 -721 -87 -252 -159 -463 -159
-468 0 -5 58 -9 129 -9 l129 0 22 68 c12 37 34 100 47 140 l26 72 215 -2 214
-3 48 -135 47 -135 131 -3 c73 -1 132 0 132 3 0 2 -54 154 -119 337 -66 183
-162 452 -214 598 l-95 265 -151 3 c-116 2 -152 0 -155 -10z m237 -500 c37
-109 67 -200 67 -203 0 -3 -66 -5 -146 -5 -117 0 -145 3 -141 13 6 15 127 374
133 396 8 26 20 -2 87 -201z"/>
<path d="M8305 4888 c-10 -33 -99 -291 -158 -458 -36 -102 -107 -304 -157
-450 -51 -146 -95 -271 -97 -277 -4 -10 25 -13 125 -13 l129 0 38 108 c20 59
42 122 48 140 l11 32 216 0 215 0 45 -138 46 -137 132 -3 c79 -1 132 1 132 7
0 10 -156 452 -266 756 -36 99 -86 240 -111 313 l-45 132 -149 0 c-111 0 -151
-3 -154 -12z m299 -690 c8 -17 -3 -18 -144 -18 -141 0 -152 1 -145 18 4 9 34
96 67 192 33 96 65 186 70 200 9 22 19 -1 77 -175 37 -110 71 -208 75 -217z"/>
<path d="M9190 4295 l0 -605 125 0 125 0 0 235 0 234 61 -1 c72 -2 55 18 199
-243 51 -93 102 -182 112 -197 l19 -28 130 0 c71 0 129 3 129 8 0 4 -61 113
-135 242 l-135 235 29 10 c47 16 118 70 151 116 60 84 80 235 46 351 -21 74
-84 151 -154 191 -86 48 -148 56 -439 57 l-263 0 0 -605z m561 357 c45 -28 64
-70 64 -144 0 -66 -22 -103 -76 -130 -27 -15 -60 -18 -166 -18 l-133 0 0 161
0 161 138 -4 c121 -3 141 -6 173 -26z"/>
<path d="M2960 4831 l-30 -29 0 -526 0 -525 24 -28 24 -28 207 0 207 0 24 28
25 29 -3 529 -3 528 -23 23 c-22 22 -30 23 -222 26 l-200 3 -30 -30z"/>
<path d="M2274 4490 c-53 -21 -54 -28 -54 -397 l0 -342 24 -28 24 -28 183 -3
c100 -2 193 -1 207 3 13 3 35 18 48 32 l24 26 0 334 c0 369 -2 381 -61 402
-38 13 -363 14 -395 1z"/>
</g>
</svg>
